<svg height="512" viewBox="0 0 58 58" width="512" xmlns="http://www.w3.org/2000/svg"><g id="Page-1" fill="none" fill-rule="evenodd"><g id="001---Swiping" fill-rule="nonzero"><path id="Shape" d="m9.02 46.319-1.38-.68c-1.01171173-.5037651-1.64809889-1.5398344-1.64-2.67-.00099412-1.0008766.50202363-1.9349858 1.33819776-2.4850474.83617412-.5500615 1.89310793-.6421372 2.81180224-.2449526l4.04 1.73 3.81 4.031z" fill="#f9c795"/><path id="Shape" d="m37.05 42.079c-.3931663-1.2416593-1.5475889-2.0837802-2.85-2.079h-17.2c-1.6568542 0-3 1.3431458-3 3s1.3431458 3 3 3h16.26z" fill="#547580"/><path id="Shape" d="m16.23 51.9 2.18 2.18c.7864853.7818223 1.8097607 1.2811525 2.91 1.42l10.45 1.56c1.1924413.1467698 2.3981122-.1369175 3.4-.8l3.68-2.45z" fill="#f9c795"/><path id="Shape" d="m58 39.22v7.78c0 .5522847-.4477153 1-1 1h-4.99c-.6027894-.0027479-1.1957906.1523978-1.72.45l-8.06 4.48c-1.0361768.569292-2.1977618.8717165-3.38.88-.14 0-.28 0-.42-.01l-18.43-1.01c-.7815392-.0459157-1.5509683-.2146501-2.28-.5l-1.49-.39-6.91-1.82c-.5563127-.2285799-.98998941-.6817978-1.19384447-1.2476385-.20385507-.5658407-.15886724-1.1915068.12384447-1.7223615.39293169-.7039104 1.14413266-1.1315171 1.95-1.11h23.06c.1325458-.6039098.4634666-1.1460567.94-1.54l2.85-2.38 6.53-5.44c2.2779759-1.888844 5.4868932-2.1715153 8.06-.71l3.45 1.98c.3572454.2012626.7599673.3079667 1.17.31h.74c.5522847 0 1 .4477153 1 1z" fill="#fdd7ad"/><path id="Shape" d="m46.8 46.2-7.07 3.54c-1.1317999.571692-2.3820084.8696869-3.65.87-.67469.0037979-1.3470045-.0802414-2-.25-.8284225-.2027121-1.5645685-.678213-2.09-1.35-.5257825-.678083-.8107763-1.5119539-.81-2.37-.0044361-.214459.0123118-.428832.05-.64h2.03c.0014399.0915765-.0120709.1827745-.04.27-.030914.120794-.0443838.2453901-.04.37-.0023298.4131157.1351154.8148786.39 1.14.252994.3137957.6000058.5381265.99.64 1.4365188.3666626 2.9572833.1996627 4.28-.47l7.07-3.54c.4947374-.2390609 1.089833-.0392153 1.34.45.120388.2369708.1405366.5123696.0559201.7643388s-.2669045.4593857-.5059201.5756612z" fill="#f9c795"/><path id="Shape" d="m27.26 35.8c-.324571.1296299-.6705092.197461-1.02.2-1.0145789-.0012746-1.9470946-.557714-2.43-1.45l-3.78-6.57-.15.09-1.45.87c-.8376372.5119345-1.8382907.6870489-2.8.49-.3076338-.0488077-.6071015-.1396575-.89-.27l-1.31.78c-1.4227296.8429289-3.2166555.7278319-4.52-.29l-.48.29c-.90962149.5466321-1.99918431.7093891-3.02884288.4524434-1.02965858-.2569458-1.91500833-.9125316-2.46115712-1.8224434l-.94-1.57-1.16-2.31c-.55139801-1.1129235-.83883924-2.3379706-.84-3.58v-5.95c.00175705-2.0935992.33938041-4.173359 1-6.16.66061959-1.98664096.99824295-4.06640083 1-6.16v-1.84c0-.26521649.10535684-.5195704.29289322-.70710678s.44189029-.29289322.70710678-.29289322h14c.5522847 0 1 .44771525 1 1v5.51c-.0015758.31003641.1429139.60272071.39.79l7.27 5.66c.8579789.6630797 1.4043108 1.6508187 1.51 2.73l.52 5.16c.1774599 1.7866489-.8690135 3.469214-2.55 4.1l3.6 7.12c.3223054.6880136.346175 1.4785879.0659649 2.184793-.2802101.7062052-.8396224 1.2653432-1.5459649 1.545207z" fill="#fdd7ad"/><path id="Shape" d="m58 7.82c0 5.14-4.36 10.26-13.56 16.06-.2715346.1599286-.6084654.1599286-.88 0-1.83-1.15-3.47-2.28-4.92-3.39-5.84-4.45-8.64-8.55-8.64-12.67 0-4.22 2.86-7.82 7-7.82 2.7721949.02204727 5.3695757 1.35784313 7 3.6.735202-1.01907621 1.6839408-1.86543308 2.78-2.48 1.2823271-.74126677 2.7388593-1.12783454 4.22-1.12 4.14 0 7 3.6 7 7.82z" fill="#ff5364"/><path id="Shape" d="m34 9c-.5522847 0-1-.44771525-1-1-.0507877-1.34100783.4596689-2.64250003 1.4085844-3.59141557.9489156-.94891553 2.2504078-1.4593721 3.5914156-1.40858443.5522847-.0013807 1.0011193.44521526 1.0025.9975s-.4452153 1.00111928-.9975 1.0025c-.8088626-.04429801-1.5984221.25734421-2.1717082.82967642-.5732861.5723322-.8762428 1.36138829-.8332918 2.17032358 0 .26521649-.1053568.5195704-.2928932.70710678s-.4418903.29289322-.7071068.29289322z" fill="#fb7b76"/><path id="Shape" d="m58 7.82c0 5.14-4.36 10.26-13.56 16.06-.2715346.1599286-.6084654.1599286-.88 0-1.83-1.15-3.47-2.28-4.92-3.39 3.5503834-2.3986187 6.4282518-5.6654813 8.36-9.49 1.68-3.36 1.07-6.9-.22-9.88 1.2823271-.74126677 2.7388593-1.12783454 4.22-1.12 4.14 0 7 3.6 7 7.82z" fill="#df4d60"/><g fill="#f9c795"><path id="Shape" d="m8.91 29.65-.48.29c-.09796864.0631419-.20177926.1167216-.31.16-.24953957-.1286543-.48714229-.2792476-.71-.45-.39074885-.293212-.72028521-.6601185-.97-1.08l-.94-1.57c.9305515.0001657 1.79272184.4887669 2.271 1.287l.169.283c.24971479.4198815.57925115.786788.97 1.08z"/><path id="Shape" d="m14.74 29.16-.5.3c-1.1648823-.1900463-2.1881012-.880719-2.8-1.89l-.94-1.57c.9305515.0001657 1.7927218.4887669 2.271 1.287l.169.283c.4201149.7042385 1.0492951 1.2600143 1.8 1.59z"/><path id="Shape" d="m20.03 27.98-.15.09-.97.58-3.41-5.93c.9279379.0009518 1.7850313.4963815 2.249 1.3z"/><path id="Shape" d="m26.3 24.27c-.343809.2929225-.7364565.5230952-1.16.68l-3.14-6.23c.9198543.0000925 1.7613487.5179055 2.176 1.339z"/></g></g></g></svg>