<?xml version="1.0" encoding="iso-8859-1"?>
<!-- Generator: Adobe Illustrator 19.0.0, SVG Export Plug-In . SVG Version: 6.00 Build 0)  -->
<svg version="1.1" id="Capa_1" xmlns="http://www.w3.org/2000/svg" xmlns:xlink="http://www.w3.org/1999/xlink" x="0px" y="0px"
	 viewBox="0 0 512 512" style="enable-background:new 0 0 512 512;" xml:space="preserve">
<path style="fill:#FDD1A3;" d="M512,286.8c0,29.66-24.13,53.79-53.78,53.79l-105.39-0.01l16.08,55.54v26.62
	c0,49.04-39.89,88.93-88.93,88.93c-11.89,0-21.57-9.67-21.57-21.56v-59c-8.38-13.41-56.6-67.34-107.74-122.18v27.36h-30V47.53
	l85.83-32.18c26.57-9.97,54.43-15.02,82.81-15.02H422.8c29.65,0,53.78,24.13,53.78,53.78c0,12.54-4.31,24.09-11.54,33.25
	c14.09,9.71,23.35,25.95,23.35,44.32c0,12.54-4.33,24.08-11.56,33.24c5.36,3.69,10.03,8.33,13.75,13.67
	c6.06,8.7,9.61,19.27,9.61,30.65c0,12.54-4.33,24.09-11.55,33.24C502.74,252.19,512,268.43,512,286.8z"/>
<path style="fill:#FFBB85;" d="M512,286.8c0,29.66-24.13,53.79-53.78,53.79l-105.39-0.01l16.08,55.54v26.62
	c0,49.04-39.89,88.93-88.93,88.93c-11.89,0-21.57-9.67-21.57-21.56v-59c-8.38-13.41-56.6-67.34-107.74-122.18v27.36h-30v-157.7
	h369.91c6.06,8.7,9.61,19.27,9.61,30.65c0,12.54-4.33,24.09-11.55,33.24C502.74,252.19,512,268.43,512,286.8z"/>
<rect y="12.09" style="fill:#7985EB;" width="150.67" height="353.64"/>
<rect y="178.59" style="fill:#4B5BE6;" width="150.67" height="187.14"/>
<rect x="60.5" y="280.99" style="fill:#E1E4FB;" width="29.673" height="29.673"/>
<g>
</g>
<g>
</g>
<g>
</g>
<g>
</g>
<g>
</g>
<g>
</g>
<g>
</g>
<g>
</g>
<g>
</g>
<g>
</g>
<g>
</g>
<g>
</g>
<g>
</g>
<g>
</g>
<g>
</g>
</svg>
