<svg height="512pt" viewBox="0 0 512 512" width="512pt" xmlns="http://www.w3.org/2000/svg"><path d="m256 0c-140.699219 0-256 115.300781-256 256s115.300781 256 256 256 256-115.300781 256-256-115.300781-256-256-256zm0 0" fill="#ff6c6c"/><path d="m512 256c0 140.699219-115.300781 256-256 256v-512c140.699219 0 256 115.300781 256 256zm0 0" fill="#f93d3d"/><path d="m128.714844 340.898438 84.898437-84.898438-84.898437-84.898438 42.386718-42.386718 84.898438 84.898437 84.898438-84.898437 42.386718 42.386718-84.898437 84.898438 84.898437 84.898438-42.386718 42.386718-84.898438-84.898437-84.898438 84.898437zm0 0" fill="#e6e6ff"/><path d="m340.898438 383.285156 42.386718-42.386718-84.898437-84.898438 84.898437-84.898438-42.386718-42.386718-84.898438 84.898437v84.773438zm0 0" fill="#c3c3e5"/></svg>